<mxfile host="app.diagrams.net" modified="2023-12-21T09:28:39.530Z" agent="Mozilla/5.0 (Windows NT 10.0; Win64; x64) AppleWebKit/537.36 (KHTML, like Gecko) Chrome/120.0.0.0 Safari/537.36 Edg/120.0.0.0" etag="KiKy8HniOoUCc1NOjRPK" version="22.1.11" type="device">
  <diagram name="PÃ¡gina-1" id="ps207mOyrlrbteBJqPFY">
    <mxGraphModel dx="1829" dy="1738" grid="1" gridSize="10" guides="1" tooltips="1" connect="1" arrows="1" fold="1" page="1" pageScale="1" pageWidth="827" pageHeight="1169" math="0" shadow="0">
      <root>
        <mxCell id="0" />
        <mxCell id="1" parent="0" />
        <mxCell id="HkOU9gHWeDw2OvWGLZZh-37" value="" style="rounded=0;whiteSpace=wrap;html=1;" vertex="1" parent="1">
          <mxGeometry x="110" y="420" width="400" height="350" as="geometry" />
        </mxCell>
        <mxCell id="HkOU9gHWeDw2OvWGLZZh-20" value="" style="shape=cube;whiteSpace=wrap;html=1;boundedLbl=1;backgroundOutline=1;darkOpacity=0.05;darkOpacity2=0.1;" vertex="1" parent="1">
          <mxGeometry x="500" y="-370" width="230" height="240" as="geometry" />
        </mxCell>
        <mxCell id="HkOU9gHWeDw2OvWGLZZh-19" value="" style="shape=cube;whiteSpace=wrap;html=1;boundedLbl=1;backgroundOutline=1;darkOpacity=0.05;darkOpacity2=0.1;" vertex="1" parent="1">
          <mxGeometry x="50" y="-370" width="260" height="240" as="geometry" />
        </mxCell>
        <mxCell id="HkOU9gHWeDw2OvWGLZZh-16" value="" style="rounded=0;whiteSpace=wrap;html=1;" vertex="1" parent="1">
          <mxGeometry x="440" y="40" width="280" height="330" as="geometry" />
        </mxCell>
        <mxCell id="HkOU9gHWeDw2OvWGLZZh-5" value="" style="rounded=0;whiteSpace=wrap;html=1;" vertex="1" parent="1">
          <mxGeometry x="50" y="40" width="270" height="330" as="geometry" />
        </mxCell>
        <mxCell id="HkOU9gHWeDw2OvWGLZZh-1" value="APP1" style="shape=cube;whiteSpace=wrap;html=1;boundedLbl=1;backgroundOutline=1;darkOpacity=0.05;darkOpacity2=0.1;" vertex="1" parent="1">
          <mxGeometry x="100" y="90" width="190" height="210" as="geometry" />
        </mxCell>
        <mxCell id="HkOU9gHWeDw2OvWGLZZh-2" value="APP2" style="shape=cube;whiteSpace=wrap;html=1;boundedLbl=1;backgroundOutline=1;darkOpacity=0.05;darkOpacity2=0.1;fillColor=#f8cecc;strokeColor=#b85450;" vertex="1" parent="1">
          <mxGeometry x="480" y="80" width="200" height="220" as="geometry" />
        </mxCell>
        <mxCell id="HkOU9gHWeDw2OvWGLZZh-3" value="" style="endArrow=none;html=1;rounded=0;exitX=1.008;exitY=0.518;exitDx=0;exitDy=0;exitPerimeter=0;entryX=-0.018;entryY=0.547;entryDx=0;entryDy=0;entryPerimeter=0;" edge="1" parent="1" source="HkOU9gHWeDw2OvWGLZZh-1" target="HkOU9gHWeDw2OvWGLZZh-2">
          <mxGeometry width="50" height="50" relative="1" as="geometry">
            <mxPoint x="390" y="320" as="sourcePoint" />
            <mxPoint x="440" y="270" as="targetPoint" />
          </mxGeometry>
        </mxCell>
        <mxCell id="HkOU9gHWeDw2OvWGLZZh-4" value="DDS" style="edgeLabel;html=1;align=center;verticalAlign=middle;resizable=0;points=[];" vertex="1" connectable="0" parent="HkOU9gHWeDw2OvWGLZZh-3">
          <mxGeometry x="0.4185" y="2" relative="1" as="geometry">
            <mxPoint x="-34" y="-8" as="offset" />
          </mxGeometry>
        </mxCell>
        <mxCell id="HkOU9gHWeDw2OvWGLZZh-6" value="Componente1 SW" style="text;strokeColor=none;fillColor=none;align=left;verticalAlign=middle;spacingLeft=4;spacingRight=4;overflow=hidden;points=[[0,0.5],[1,0.5]];portConstraint=eastwest;rotatable=0;whiteSpace=wrap;html=1;" vertex="1" parent="1">
          <mxGeometry x="160" y="130" width="100" height="30" as="geometry" />
        </mxCell>
        <mxCell id="HkOU9gHWeDw2OvWGLZZh-7" value="Componente2&amp;nbsp;SW" style="text;strokeColor=none;fillColor=none;align=left;verticalAlign=middle;spacingLeft=4;spacingRight=4;overflow=hidden;points=[[0,0.5],[1,0.5]];portConstraint=eastwest;rotatable=0;whiteSpace=wrap;html=1;" vertex="1" parent="1">
          <mxGeometry x="530" y="110" width="110" height="40" as="geometry" />
        </mxCell>
        <mxCell id="HkOU9gHWeDw2OvWGLZZh-8" value="Front-End" style="text;strokeColor=none;fillColor=none;align=left;verticalAlign=middle;spacingLeft=4;spacingRight=4;overflow=hidden;points=[[0,0.5],[1,0.5]];portConstraint=eastwest;rotatable=0;whiteSpace=wrap;html=1;" vertex="1" parent="1">
          <mxGeometry x="160" y="240" width="80" height="30" as="geometry" />
        </mxCell>
        <mxCell id="HkOU9gHWeDw2OvWGLZZh-9" value="Back-End" style="text;strokeColor=none;fillColor=none;align=left;verticalAlign=middle;spacingLeft=4;spacingRight=4;overflow=hidden;points=[[0,0.5],[1,0.5]];portConstraint=eastwest;rotatable=0;whiteSpace=wrap;html=1;" vertex="1" parent="1">
          <mxGeometry x="550" y="240" width="80" height="30" as="geometry" />
        </mxCell>
        <mxCell id="HkOU9gHWeDw2OvWGLZZh-10" value="SSOO: LINUX" style="text;strokeColor=none;fillColor=none;align=left;verticalAlign=middle;spacingLeft=4;spacingRight=4;overflow=hidden;points=[[0,0.5],[1,0.5]];portConstraint=eastwest;rotatable=0;whiteSpace=wrap;html=1;" vertex="1" parent="1">
          <mxGeometry x="170" y="40" width="80" height="30" as="geometry" />
        </mxCell>
        <mxCell id="HkOU9gHWeDw2OvWGLZZh-11" value="Actor" style="shape=umlActor;verticalLabelPosition=bottom;verticalAlign=top;html=1;outlineConnect=0;" vertex="1" parent="1">
          <mxGeometry x="10" y="165" width="30" height="60" as="geometry" />
        </mxCell>
        <mxCell id="HkOU9gHWeDw2OvWGLZZh-12" value="" style="endArrow=none;html=1;rounded=0;exitX=0.5;exitY=0.5;exitDx=0;exitDy=0;exitPerimeter=0;" edge="1" parent="1" source="HkOU9gHWeDw2OvWGLZZh-11" target="HkOU9gHWeDw2OvWGLZZh-1">
          <mxGeometry width="50" height="50" relative="1" as="geometry">
            <mxPoint x="390" y="320" as="sourcePoint" />
            <mxPoint x="440" y="270" as="targetPoint" />
          </mxGeometry>
        </mxCell>
        <mxCell id="HkOU9gHWeDw2OvWGLZZh-14" value="Procesador&lt;br&gt;i7" style="shape=cube;whiteSpace=wrap;html=1;boundedLbl=1;backgroundOutline=1;darkOpacity=0.05;darkOpacity2=0.1;" vertex="1" parent="1">
          <mxGeometry x="80" y="-230" width="130" height="80" as="geometry" />
        </mxCell>
        <mxCell id="HkOU9gHWeDw2OvWGLZZh-15" value="Diagrama de Componentes SW" style="text;strokeColor=none;fillColor=none;align=left;verticalAlign=middle;spacingLeft=4;spacingRight=4;overflow=hidden;points=[[0,0.5],[1,0.5]];portConstraint=eastwest;rotatable=0;whiteSpace=wrap;html=1;fontStyle=5" vertex="1" parent="1">
          <mxGeometry x="50" y="10" width="230" height="30" as="geometry" />
        </mxCell>
        <mxCell id="HkOU9gHWeDw2OvWGLZZh-17" value="SSOO: LINUX" style="text;strokeColor=none;fillColor=none;align=left;verticalAlign=middle;spacingLeft=4;spacingRight=4;overflow=hidden;points=[[0,0.5],[1,0.5]];portConstraint=eastwest;rotatable=0;whiteSpace=wrap;html=1;" vertex="1" parent="1">
          <mxGeometry x="560" y="40" width="80" height="30" as="geometry" />
        </mxCell>
        <mxCell id="HkOU9gHWeDw2OvWGLZZh-18" value="Procesador&lt;br&gt;i7" style="shape=cube;whiteSpace=wrap;html=1;boundedLbl=1;backgroundOutline=1;darkOpacity=0.05;darkOpacity2=0.1;" vertex="1" parent="1">
          <mxGeometry x="580" y="-310" width="130" height="80" as="geometry" />
        </mxCell>
        <mxCell id="HkOU9gHWeDw2OvWGLZZh-21" value="PC Front" style="text;strokeColor=none;fillColor=none;align=left;verticalAlign=middle;spacingLeft=4;spacingRight=4;overflow=hidden;points=[[0,0.5],[1,0.5]];portConstraint=eastwest;rotatable=0;whiteSpace=wrap;html=1;" vertex="1" parent="1">
          <mxGeometry x="130" y="-350" width="80" height="30" as="geometry" />
        </mxCell>
        <mxCell id="HkOU9gHWeDw2OvWGLZZh-22" value="PC Back" style="text;strokeColor=none;fillColor=none;align=left;verticalAlign=middle;spacingLeft=4;spacingRight=4;overflow=hidden;points=[[0,0.5],[1,0.5]];portConstraint=eastwest;rotatable=0;whiteSpace=wrap;html=1;" vertex="1" parent="1">
          <mxGeometry x="565" y="-350" width="80" height="30" as="geometry" />
        </mxCell>
        <mxCell id="HkOU9gHWeDw2OvWGLZZh-23" value="Monitor" style="shape=cube;whiteSpace=wrap;html=1;boundedLbl=1;backgroundOutline=1;darkOpacity=0.05;darkOpacity2=0.1;fillColor=#d5e8d4;strokeColor=#82b366;" vertex="1" parent="1">
          <mxGeometry x="80" y="-320" width="120" height="80" as="geometry" />
        </mxCell>
        <mxCell id="HkOU9gHWeDw2OvWGLZZh-24" value="Actor" style="shape=umlActor;verticalLabelPosition=bottom;verticalAlign=top;html=1;outlineConnect=0;" vertex="1" parent="1">
          <mxGeometry x="-10" y="-320" width="30" height="60" as="geometry" />
        </mxCell>
        <mxCell id="HkOU9gHWeDw2OvWGLZZh-28" value="" style="endArrow=none;html=1;rounded=0;exitX=0.5;exitY=0.5;exitDx=0;exitDy=0;exitPerimeter=0;entryX=0;entryY=0;entryDx=0;entryDy=30;entryPerimeter=0;" edge="1" parent="1" source="HkOU9gHWeDw2OvWGLZZh-24" target="HkOU9gHWeDw2OvWGLZZh-23">
          <mxGeometry width="50" height="50" relative="1" as="geometry">
            <mxPoint x="340" y="-290" as="sourcePoint" />
            <mxPoint x="390" y="-340" as="targetPoint" />
          </mxGeometry>
        </mxCell>
        <mxCell id="HkOU9gHWeDw2OvWGLZZh-29" value="Red" style="shape=cube;whiteSpace=wrap;html=1;boundedLbl=1;backgroundOutline=1;darkOpacity=0.05;darkOpacity2=0.1;fillColor=#f8cecc;strokeColor=#b85450;" vertex="1" parent="1">
          <mxGeometry x="220" y="-230" width="80" height="80" as="geometry" />
        </mxCell>
        <mxCell id="HkOU9gHWeDw2OvWGLZZh-30" value="Red" style="shape=cube;whiteSpace=wrap;html=1;boundedLbl=1;backgroundOutline=1;darkOpacity=0.05;darkOpacity2=0.1;fillColor=#f8cecc;strokeColor=#b85450;" vertex="1" parent="1">
          <mxGeometry x="530" y="-220" width="80" height="80" as="geometry" />
        </mxCell>
        <mxCell id="HkOU9gHWeDw2OvWGLZZh-31" value="Ethernet" style="endArrow=none;html=1;rounded=0;entryX=0.035;entryY=0.47;entryDx=0;entryDy=0;entryPerimeter=0;exitX=0;exitY=0;exitDx=80;exitDy=50;exitPerimeter=0;" edge="1" parent="1" source="HkOU9gHWeDw2OvWGLZZh-29" target="HkOU9gHWeDw2OvWGLZZh-30">
          <mxGeometry width="50" height="50" relative="1" as="geometry">
            <mxPoint x="340" y="-290" as="sourcePoint" />
            <mxPoint x="390" y="-340" as="targetPoint" />
          </mxGeometry>
        </mxCell>
        <mxCell id="HkOU9gHWeDw2OvWGLZZh-32" value="Diagrama Arquitectura HW" style="text;strokeColor=none;fillColor=none;align=left;verticalAlign=middle;spacingLeft=4;spacingRight=4;overflow=hidden;points=[[0,0.5],[1,0.5]];portConstraint=eastwest;rotatable=0;whiteSpace=wrap;html=1;fontStyle=5" vertex="1" parent="1">
          <mxGeometry x="50" y="-410" width="190" height="30" as="geometry" />
        </mxCell>
        <mxCell id="HkOU9gHWeDw2OvWGLZZh-33" value="" style="shape=flexArrow;endArrow=classic;html=1;rounded=0;" edge="1" parent="1">
          <mxGeometry width="50" height="50" relative="1" as="geometry">
            <mxPoint x="380" y="-120" as="sourcePoint" />
            <mxPoint x="380" as="targetPoint" />
          </mxGeometry>
        </mxCell>
        <mxCell id="HkOU9gHWeDw2OvWGLZZh-34" value="Boundary Object" style="shape=umlBoundary;whiteSpace=wrap;html=1;fillColor=#ffe6cc;strokeColor=#d79b00;" vertex="1" parent="1">
          <mxGeometry x="95" y="460" width="100" height="80" as="geometry" />
        </mxCell>
        <mxCell id="HkOU9gHWeDw2OvWGLZZh-35" value="Control Object" style="ellipse;shape=umlControl;whiteSpace=wrap;html=1;fillColor=#d5e8d4;strokeColor=#82b366;" vertex="1" parent="1">
          <mxGeometry x="390" y="450" width="80" height="90" as="geometry" />
        </mxCell>
        <mxCell id="HkOU9gHWeDw2OvWGLZZh-36" value="Entity Object" style="ellipse;shape=umlEntity;whiteSpace=wrap;html=1;fillColor=#dae8fc;strokeColor=#6c8ebf;" vertex="1" parent="1">
          <mxGeometry x="270" y="660" width="80" height="80" as="geometry" />
        </mxCell>
        <mxCell id="HkOU9gHWeDw2OvWGLZZh-38" value="LÃ³gica de Negocio" style="text;strokeColor=none;fillColor=none;align=left;verticalAlign=middle;spacingLeft=4;spacingRight=4;overflow=hidden;points=[[0,0.5],[1,0.5]];portConstraint=eastwest;rotatable=0;whiteSpace=wrap;html=1;" vertex="1" parent="1">
          <mxGeometry x="560" y="430" width="80" height="30" as="geometry" />
        </mxCell>
      </root>
    </mxGraphModel>
  </diagram>
</mxfile>
